<?xml version="1.0" standalone="no"?>
<!DOCTYPE svg PUBLIC "-//W3C//DTD SVG 20010904//EN"
 "http://www.w3.org/TR/2001/REC-SVG-20010904/DTD/svg10.dtd">
<svg version="1.0" xmlns="http://www.w3.org/2000/svg"
 width="512.000000pt" height="512.000000pt" viewBox="0 0 512.000000 512.000000"
 preserveAspectRatio="xMidYMid meet">

<g transform="translate(0.000000,512.000000) scale(0.100000,-0.100000)"
fill="#000000" stroke="none">
<path d="M2451 5104 c-80 -21 -169 -73 -227 -131 -58 -58 -119 -170 -129 -237
-7 -44 -8 -45 -59 -56 -159 -37 -445 -154 -589 -241 -37 -23 -38 -23 -65 -6
-156 102 -342 113 -504 31 -62 -31 -161 -123 -194 -179 -55 -95 -79 -212 -63
-319 9 -68 54 -183 84 -216 13 -14 10 -23 -21 -75 -91 -150 -167 -327 -219
-505 l-33 -115 -44 -7 c-23 -4 -76 -24 -117 -44 -203 -100 -312 -334 -256
-549 22 -84 72 -171 132 -231 58 -58 170 -119 237 -129 44 -7 45 -8 56 -59 37
-159 154 -445 241 -589 23 -37 23 -38 6 -65 -102 -156 -113 -342 -31 -504 31
-62 123 -161 179 -194 95 -55 212 -79 319 -63 68 9 183 54 216 84 14 13 23 10
75 -21 150 -91 327 -167 505 -219 l115 -33 7 -44 c4 -23 24 -76 44 -117 100
-203 334 -312 549 -256 84 22 171 72 231 132 58 58 119 170 129 237 7 44 8 45
59 56 159 37 445 154 589 241 37 23 38 23 65 6 156 -102 342 -113 504 -31 62
31 161 123 194 179 55 95 79 212 63 319 -9 68 -54 183 -84 216 -13 14 -10 23
21 75 91 150 167 327 219 505 l33 115 44 7 c71 12 184 74 244 134 87 88 144
223 144 344 0 121 -58 257 -147 346 -58 58 -170 119 -237 129 -44 7 -45 8 -56
59 -37 159 -154 445 -241 589 -23 37 -23 38 -6 65 102 156 113 342 31 504 -31
62 -123 161 -179 194 -95 55 -212 79 -319 63 -68 -9 -183 -54 -216 -84 -14
-13 -23 -10 -75 21 -150 91 -327 167 -505 219 l-115 33 -7 44 c-13 73 -75 185
-138 247 -120 118 -301 168 -459 125z m224 -234 c99 -42 155 -130 155 -239 0
-81 -23 -134 -80 -189 -117 -114 -312 -90 -401 50 -25 39 -33 63 -37 117 -5
78 6 122 48 180 70 95 202 130 315 81z m-541 -454 c55 -113 174 -214 294 -250
l62 -19 0 -229 0 -228 75 0 75 0 0 228 0 228 51 13 c127 33 255 135 313 249
31 62 25 61 181 10 87 -28 352 -151 387 -179 16 -13 16 -18 -4 -74 -41 -117
-23 -283 43 -394 l20 -34 -163 -164 -163 -163 55 -55 55 -55 162 162 162 161
59 -31 c118 -63 241 -78 367 -43 38 11 73 17 77 14 13 -7 122 -230 153 -311
15 -40 38 -111 50 -157 l23 -84 -53 -26 c-112 -54 -213 -173 -249 -293 l-19
-62 -229 0 -228 0 0 -75 0 -75 228 0 228 0 13 -51 c33 -127 135 -255 249 -313
62 -31 61 -25 10 -181 -28 -87 -151 -352 -179 -387 -13 -16 -18 -16 -74 4
-117 41 -283 23 -394 -43 l-34 -20 -164 163 -163 163 -55 -55 -55 -55 162
-162 161 -162 -31 -59 c-63 -118 -78 -241 -43 -367 11 -38 17 -73 14 -77 -7
-13 -230 -122 -311 -153 -40 -15 -111 -38 -157 -50 l-84 -23 -26 53 c-55 113
-177 216 -294 249 l-61 17 0 230 0 229 -75 0 -75 0 0 -227 0 -228 -63 -18
c-34 -10 -85 -32 -113 -47 -65 -38 -154 -132 -188 -199 -31 -61 -25 -60 -181
-9 -87 28 -352 151 -387 179 -16 13 -16 18 4 74 41 117 23 283 -43 394 l-20
34 163 164 163 163 -55 55 -55 55 -162 -162 -162 -161 -59 31 c-118 63 -241
78 -367 43 -38 -11 -73 -17 -77 -14 -13 7 -122 230 -153 311 -15 40 -38 111
-50 157 l-23 84 53 26 c112 54 213 173 249 293 l19 62 229 0 228 0 0 75 0 75
-228 0 -228 0 -13 51 c-33 127 -135 255 -249 313 -62 31 -61 25 -10 181 28 87
151 352 179 387 13 16 18 16 74 -4 117 -41 283 -23 394 43 l34 20 164 -163
163 -163 55 55 55 55 -162 162 -161 162 31 59 c63 118 78 241 43 367 -11 38
-17 73 -14 77 7 13 230 122 312 153 40 15 110 38 155 51 44 12 82 23 82 23 1
1 14 -23 28 -53z m-928 -141 c91 -37 158 -140 157 -240 0 -144 -97 -251 -238
-263 -228 -18 -368 241 -230 423 69 89 203 124 311 80z m2914 -10 c104 -37
174 -137 173 -249 -1 -73 -19 -120 -68 -174 -131 -146 -377 -97 -440 87 -71
209 128 409 335 336z m-3524 -1454 c51 -23 104 -75 130 -127 26 -54 26 -174 0
-228 -24 -47 -74 -99 -119 -122 -17 -10 -65 -19 -104 -22 -64 -4 -79 -1 -127
22 -196 96 -199 373 -4 470 65 33 161 35 224 7z m4152 -27 c90 -45 144 -132
144 -234 0 -148 -113 -260 -261 -260 -143 1 -248 99 -259 241 -9 119 67 237
174 269 61 18 147 11 202 -16z m-3541 -1450 c156 -75 191 -285 70 -412 -126
-132 -344 -98 -423 65 -45 90 -36 194 22 270 82 108 207 136 331 77z m2913 -5
c206 -93 214 -377 13 -475 -65 -32 -154 -37 -214 -11 -53 22 -114 81 -140 135
-64 131 9 308 147 357 58 21 141 18 194 -6z m-1489 -591 c58 -20 107 -58 140
-110 43 -66 52 -171 22 -239 -29 -65 -67 -105 -128 -134 -130 -64 -285 -12
-349 117 -33 65 -35 161 -7 225 25 55 92 118 144 137 52 18 133 20 178 4z"/>
<path d="M2353 3423 c-12 -2 -36 -20 -53 -39 l-30 -35 0 -249 0 -249 -256 -3
-256 -3 -34 -37 -34 -38 0 -211 c0 -311 -13 -299 339 -299 l241 0 0 -245 0
-245 34 -38 34 -37 222 0 222 0 34 37 34 38 0 245 0 245 241 0 c352 0 339 -12
339 299 l0 211 -34 38 -34 37 -256 3 -256 3 0 250 0 249 -34 38 -34 37 -204 1
c-112 1 -213 0 -225 -3z"/>
</g>
</svg>
